<?xml version="1.0" encoding="utf-8"?>
<!-- Generator: Adobe Illustrator 24.0.2, SVG Export Plug-In . SVG Version: 6.00 Build 0)  -->
<svg version="1.1" id="Layer_1" xmlns="http://www.w3.org/2000/svg" xmlns:xlink="http://www.w3.org/1999/xlink" x="0px" y="0px"
	 viewBox="0 0 946.9 187.3" style="enable-background:new 0 0 946.9 187.3;" xml:space="preserve">
<style type="text/css">
	.st0{fill:url(#SVGID_1_);}
	.st1{fill:url(#SVGID_2_);}
	.st2{fill:url(#SVGID_3_);}
	.st3{fill:url(#SVGID_4_);}
	.st4{fill:url(#SVGID_5_);}
	.st5{fill:url(#SVGID_6_);}
	.st6{fill:url(#SVGID_7_);}
	.st7{fill:url(#SVGID_8_);}
	.st8{fill:url(#SVGID_9_);}
	.st9{fill:url(#SVGID_10_);}
	.st10{fill:url(#SVGID_11_);}
	.st11{fill:#085794;}
</style>
<g>
	<linearGradient id="SVGID_1_" gradientUnits="userSpaceOnUse" x1="55.7998" y1="97.3619" x2="164.2005" y2="97.3619">
		<stop  offset="0" style="stop-color:#A2A2A2"/>
		<stop  offset="1" style="stop-color:#474747"/>
	</linearGradient>
	<ellipse class="st0" cx="105.1" cy="97.4" rx="65" ry="68.3"/>
	<radialGradient id="SVGID_2_" cx="90.6954" cy="73.378" r="116.4028" gradientUnits="userSpaceOnUse">
		<stop  offset="0" style="stop-color:#0295BF"/>
		<stop  offset="0.1697" style="stop-color:#0292BD"/>
		<stop  offset="0.2864" style="stop-color:#0389B7"/>
		<stop  offset="0.3872" style="stop-color:#047AAC"/>
		<stop  offset="0.4789" style="stop-color:#06649C"/>
		<stop  offset="0.5637" style="stop-color:#084888"/>
		<stop  offset="0.6" style="stop-color:#093A7E"/>
		<stop  offset="0.604" style="stop-color:#093C80"/>
		<stop  offset="0.6736" style="stop-color:#075D97"/>
		<stop  offset="0.7403" style="stop-color:#0675A8"/>
		<stop  offset="0.8023" style="stop-color:#0583B2"/>
		<stop  offset="0.8549" style="stop-color:#0588B6"/>
	</radialGradient>
	<ellipse class="st1" cx="104.6" cy="93.3" rx="64.9" ry="64.6"/>
	<radialGradient id="SVGID_3_" cx="92.2107" cy="85.8706" r="134.3849" gradientUnits="userSpaceOnUse">
		<stop  offset="0" style="stop-color:#ACACAC"/>
		<stop  offset="0.1781" style="stop-color:#FFFFFF"/>
		<stop  offset="0.6841" style="stop-color:#979797"/>
		<stop  offset="0.726" style="stop-color:#808080"/>
		<stop  offset="0.7582" style="stop-color:#979797"/>
	</radialGradient>
	<path class="st2" d="M195.4,93.7c0,4.5-0.3,8.9-1,13.2c-6.4,44-44.2,77.7-89.9,77.7c-50.2,0-90.9-40.7-90.9-91
		c0-50.1,40.4-90.7,90.4-91v26.7c-35.3,0.5-63.7,30.8-63.7,68c0,37.5,28.9,68,64.6,68c32.6,0,59.6-25.4,64-58.5h-68.6V79.6h93.8
		C195,84.2,195.4,88.9,195.4,93.7z"/>
	<linearGradient id="SVGID_4_" gradientUnits="userSpaceOnUse" x1="74.316" y1="35.6479" x2="95.3223" y2="68.7815">
		<stop  offset="0" style="stop-color:#05A2C7"/>
		<stop  offset="1" style="stop-color:#05A2C7;stop-opacity:0"/>
	</linearGradient>
	<path class="st3" d="M97.3,75.2c-18.6,9.7-38.1,9.3-43.5-1c-5.4-10.3,5.3-26.6,24-36.3c18.6-9.7,38.1-9.3,43.5,1
		C126.7,49.2,115.9,65.5,97.3,75.2z"/>
	<linearGradient id="SVGID_5_" gradientUnits="userSpaceOnUse" x1="61.2357" y1="10.1284" x2="73.4172" y2="30.7557">
		<stop  offset="0" style="stop-color:#EDEDED"/>
		<stop  offset="1" style="stop-color:#EDEDED;stop-opacity:3.000000e-02"/>
	</linearGradient>
	<path class="st4" d="M73.9,32.6c-14.9,7.8-29.2,9.7-32,4.4c-2.8-5.4,7-16,21.8-23.8c14.9-7.8,29.2-9.7,32-4.4
		C98.5,14.2,88.7,24.8,73.9,32.6z"/>
	<linearGradient id="SVGID_6_" gradientUnits="userSpaceOnUse" x1="134.7914" y1="154.8183" x2="124.6126" y2="132.5116">
		<stop  offset="0" style="stop-color:#41ADCD"/>
		<stop  offset="7.084954e-02" style="stop-color:#53B4D0;stop-opacity:0.9313"/>
		<stop  offset="0.3053" style="stop-color:#89C8DA;stop-opacity:0.7039"/>
		<stop  offset="0.5235" style="stop-color:#B4D8E2;stop-opacity:0.4922"/>
		<stop  offset="0.7188" style="stop-color:#D3E3E8;stop-opacity:0.3027"/>
		<stop  offset="0.8843" style="stop-color:#E6EAEC;stop-opacity:0.1422"/>
		<stop  offset="1" style="stop-color:#EDEDED;stop-opacity:3.000000e-02"/>
	</linearGradient>
	<path class="st5" d="M124.6,132.7c12-5.6,23.4-6.6,25.5-2.2c2.1,4.4-5.9,12.6-17.9,18.2c-12,5.6-23.4,6.6-25.5,2.2
		C104.6,146.4,112.6,138.3,124.6,132.7z"/>
</g>
<g>
	<linearGradient id="SVGID_7_" gradientUnits="userSpaceOnUse" x1="203.039" y1="96.4669" x2="246.7125" y2="96.4669">
		<stop  offset="0" style="stop-color:#999999"/>
		<stop  offset="0.4685" style="stop-color:#ACACAC"/>
		<stop  offset="1" style="stop-color:#979797"/>
	</linearGradient>
	<path class="st6" d="M215.4,155.2c-5.6-0.1-8.8-3-9.5-8.6c-0.7-5.6-0.3-13.7,1.3-24.2c1.6-10.5,2.5-20.5,2.6-30
		c0.1-9.5-0.2-19.3-1-29.4c-0.8-10.1-2.7-18.5-5.8-25.2l31.3-0.1c3.9,0.5,6.3,2.3,7.1,5.4c0.9,3.1,1.2,6.4,0.9,9.9
		c-0.3,3.5-1,10.4-2.1,20.6c-1.1,10.2-1.3,23.4-0.4,39.4c0.9,16,3.2,30.1,6.9,42.2H215.4z"/>
	<linearGradient id="SVGID_8_" gradientUnits="userSpaceOnUse" x1="252.834" y1="110.0475" x2="338.1655" y2="110.0475">
		<stop  offset="0" style="stop-color:#999999"/>
		<stop  offset="0.4685" style="stop-color:#ACACAC"/>
		<stop  offset="1" style="stop-color:#979797"/>
	</linearGradient>
	<path class="st7" d="M294,62.8c30.7,0.5,45.4,18,44,52.4c-2.1,17-7.9,28.7-17.6,35.1c-6.6,4.5-14.9,6.8-25,6.9
		c-10,0.1-18.6-2.1-25.6-6.5c-11.1-7.6-16.8-20-17.1-37.2C252,81.7,265.7,64.8,294,62.8z M294,75.7c-6.3,0.6-9.1,7.2-8.5,19.8
		l-0.1,29.9c0.7,9.1,3.5,14.1,8.5,15.1c6.5,0.2,10.1-4.7,10.7-14.9V95.5C305.6,82.6,302,76,294,75.7z"/>
	<linearGradient id="SVGID_9_" gradientUnits="userSpaceOnUse" x1="342.1858" y1="96.896" x2="433.4621" y2="96.896">
		<stop  offset="0" style="stop-color:#999999"/>
		<stop  offset="0.4685" style="stop-color:#ACACAC"/>
		<stop  offset="1" style="stop-color:#979797"/>
	</linearGradient>
	<path class="st8" d="M355.7,155.2c-5-1.2-7.4-4.5-7.2-10c0.2-5.5,0.9-16.6,2.1-33.6c1.2-16.9,1.6-29,1.4-36.2
		c-0.2-7.2-1-13.6-2.1-19.3c-1.2-5.6-3.7-11.7-7.6-18.4l30.4,0.1c8.6,0.5,12,6.1,10.4,16.5c-1.6,10.5-2.3,17.3-1.9,20.5
		c10.3-10.5,21.4-13.5,33.2-9.1c11.8,4.4,18.2,16.3,19.2,35.5v19.3c-2.3,17.8-8.9,28.9-19.8,33.4c-11,4.5-21.1,1.5-30.4-9
		c-0.1,2.7,1.5,6.1,4.6,10.2H355.7z M380.9,97c-0.4,7-0.3,17.1,0.3,30.2c3.3,10.6,7.8,14.5,13.5,11.7c5.7-2.8,8.1-11.6,7.4-26.4
		c0.5-16.1-0.8-25.9-3.8-29.6c-3-3.6-6.6-4.3-10.7-2.1C383.5,84.6,381.3,89.9,380.9,97z"/>
	<linearGradient id="SVGID_10_" gradientUnits="userSpaceOnUse" x1="439.7169" y1="109.6077" x2="525.8103" y2="109.6077">
		<stop  offset="0" style="stop-color:#999999"/>
		<stop  offset="0.4685" style="stop-color:#ACACAC"/>
		<stop  offset="1" style="stop-color:#979797"/>
	</linearGradient>
	<path class="st9" d="M510,66.8c5.6,2.6,9.2,8.8,10.9,18.4c0.2,9.9,0.1,21.2-0.5,33.8c-0.6,12.6,1.2,24.6,5.4,36.2h-32.9
		c-3.9-1.7-5.7-4.6-5.4-8.9c-12.5,9.9-23.6,12.2-33.4,6.6c-9.7-5.5-14.5-13.8-14.4-24.8c-0.8-14.3,4.4-24.5,15.6-30.5
		c11.3-5.9,22.3-4.5,32.9,4.3v-8.3c-2.2-10.5-10.8-12.3-25.7-5.2c-5.7,3.1-9.7,4.4-12.1,3.9c-2.4-0.5-4-1.6-4.7-3.3
		c-0.7-1.7-0.8-4.4-0.2-8.2c0.6-3.7,1-7.7,1.2-11.7c4,0.5,7.6,0.6,10.8,0.1c3.1-0.5,8.3-1.4,15.6-2.9c7.3-1.5,13.9-2.5,19.8-2.8
		C498.7,63,504.5,64.2,510,66.8z M479.7,107.9c-7.1,1-10.2,7.3-9.3,19c1.3,11.7,7.1,15,17.2,9.7c0.8-6.8,1-12.9,0.6-18.3
		C487.8,112.7,485,109.2,479.7,107.9z"/>
	<linearGradient id="SVGID_11_" gradientUnits="userSpaceOnUse" x1="528.8468" y1="96.4669" x2="572.5203" y2="96.4669">
		<stop  offset="0" style="stop-color:#999999"/>
		<stop  offset="0.4685" style="stop-color:#ACACAC"/>
		<stop  offset="1" style="stop-color:#979797"/>
	</linearGradient>
	<path class="st10" d="M541.2,155.2c-5.6-0.1-8.8-3-9.5-8.6c-0.7-5.6-0.3-13.7,1.3-24.2c1.6-10.5,2.5-20.5,2.6-30
		c0.1-9.5-0.2-19.3-1-29.4c-0.8-10.1-2.7-18.5-5.8-25.2l31.3-0.1c3.9,0.5,6.3,2.3,7.1,5.4c0.9,3.1,1.2,6.4,0.9,9.9
		c-0.3,3.5-1,10.4-2.1,20.6c-1.1,10.2-1.3,23.4-0.4,39.4c0.9,16,3.2,30.1,6.9,42.2H541.2z"/>
</g>
<g>
	<path class="st11" d="M585.8,154.9c-5.8-0.1-9.1-3.1-9.8-8.8c-0.7-5.8-0.3-14,1.4-24.8c1.7-10.8,2.6-21,2.7-30.6
		c0.1-9.7-0.2-19.7-1.1-30c-0.8-10.4-2.8-19-6-25.8h17.6c26-3.6,45.8,0.4,59.6,11.9c13.8,11.5,22.7,25,26.6,40.6
		c4,15.6,3,29.2-2.9,40.8c-5.9,11.6-13.6,20-23,25.1c-9.5,5.1-19,5.7-28.7,1.5c-3-5.3-4.6-11-4.9-17.1c12.1,3.3,19.6-4.1,22.6-22.2
		c3-18.1,1.4-33.2-4.5-45.4c-6-12.1-13.7-19-23-20.5c-0.6,10.8-1.2,19.8-1.8,26.9c-0.6,7.1-0.4,18.8,0.5,35.2
		c0.9,16.4,3.3,30.8,7.2,43.2H585.8z"/>
	<path class="st11" d="M679.1,34.7h33.2c8.3-0.2,13.1,3.6,14.2,11.5L740.7,92c4,7.1,8,5.8,11.9-4c3.6-12.1-0.7-24.7-12.8-38
		c-2.1-3.7-2.7-7.1-1.8-10.2c0.9-3.1,3.5-4.8,7.9-5.1h43c-13.2,2.1-11.6,21.2,4.8,57.3c3.9,5.7,7.7,6.3,11.2,1.7
		c3.5-4.6,4.3-11.9,2.5-21.9c-1.9-10-5.8-17.7-11.8-23c-2.5-3.3-3.2-6.5-2-9.7c1.2-3.2,3.8-4.8,7.9-4.9l39,0.1
		c-30.4,71.3-41.8,111.3-34.2,120.2l-24.8,0.3c-4.6-0.2-7.6-3.6-9.2-10.2l-11.5-38.4c-8.3,13.4-11.2,29.5-8.6,48.3l-25.8,0.3
		c-5.8,0.2-9.3-5-10.6-15.6c-1.3-10.7-4.1-23.2-8.4-37.6l-20-55C685.9,41.1,683.1,37.1,679.1,34.7z"/>
	<path class="st11" d="M895.2,33.9c11.1,2.5,20.5,3.1,28.1,1.8c-0.9,3.4-0.4,8.1,1.2,14.1c1.7,6,1.6,10.8-0.1,14.6
		c-4.2,7.6-9.9,7.6-17.1,0c-8.6-10.4-16.5-15.3-23.7-14.7c-7.2,0.6-10.2,3.7-9.3,9.3c1,5.6,4.2,9.6,9.6,12c5.4,2.4,18.1,7.9,38,16.6
		c11.3,8.2,14.1,22.3,8.1,42.4c-11,24.7-34.4,32.3-70.1,23c-6.8-1.7-13.4-2.3-19.9-1.9c1-4.6-0.2-14.1-3.4-28.6
		c0.1-5.6,2-9.1,5.8-10.4c3.8-1.4,7.7,0.2,11.6,4.5c6.7,7.1,14,12.1,21.7,15.1c7.8,3,14,2.4,18.6-1.8c4.7-4.2,5.2-8.4,1.6-12.6
		c-3.6-4.2-10-8.3-19.4-12.1c-9.3-3.9-16.4-7.5-21.2-11.1c-4.8-3.5-9-7.7-12.5-12.4c-3.5-4.7-4.4-12.2-2.6-22.2
		c1.8-10.1,8.6-17.5,20.4-22.1C872.6,32.5,884.1,31.4,895.2,33.9z"/>
</g>
</svg>
